<?xml version="1.0" encoding="UTF-8" standalone="no"?>
<!-- Created with Inkscape (http://www.inkscape.org/) -->

<svg
   xmlns:dc="http://purl.org/dc/elements/1.1/"
   xmlns:cc="http://creativecommons.org/ns#"
   xmlns:rdf="http://www.w3.org/1999/02/22-rdf-syntax-ns#"
   xmlns:svg="http://www.w3.org/2000/svg"
   xmlns="http://www.w3.org/2000/svg"
   xmlns:sodipodi="http://sodipodi.sourceforge.net/DTD/sodipodi-0.dtd"
   xmlns:inkscape="http://www.inkscape.org/namespaces/inkscape"
   width="36.688889mm"
   height="29.603428mm"
   viewBox="0 0 130 104.89404"
   id="svg3556"
   version="1.1"
   inkscape:version="0.91 r13725"
   sodipodi:docname="kurs1.svg">
  <defs
     id="defs3558" />
  <sodipodi:namedview
     id="base"
     pagecolor="#ffffff"
     bordercolor="#666666"
     borderopacity="1.0"
     inkscape:pageopacity="0.0"
     inkscape:pageshadow="2"
     inkscape:zoom="0.35"
     inkscape:cx="-631.42858"
     inkscape:cy="123.87559"
     inkscape:document-units="px"
     inkscape:current-layer="layer1"
     showgrid="false"
     fit-margin-top="0"
     fit-margin-left="0"
     fit-margin-right="0"
     fit-margin-bottom="0"
     inkscape:window-width="1920"
     inkscape:window-height="1016"
     inkscape:window-x="0"
     inkscape:window-y="27"
     inkscape:window-maximized="1" />
  <metadata
     id="metadata3561">
    <rdf:RDF>
      <cc:Work
         rdf:about="">
        <dc:format>image/svg+xml</dc:format>
        <dc:type
           rdf:resource="http://purl.org/dc/dcmitype/StillImage" />
        <dc:title></dc:title>
      </cc:Work>
    </rdf:RDF>
  </metadata>
  <g
     inkscape:label="Layer 1"
     inkscape:groupmode="layer"
     id="layer1"
     transform="translate(-400.71429,-551.34376)">
    <g
       transform="matrix(1.25,0,0,-1.25,336.71554,720.23942)"
       inkscape:label="Kurslogo_Kurs 1"
       id="g4339"
       style="fill:#ffffff">
      <g
         id="g4341"
         style="fill:#ffffff">
        <path
           inkscape:connector-curvature="0"
           id="path4343"
           style="fill:#ffffff;fill-opacity:1;fill-rule:nonzero;stroke:none"
           d="m 86.223,135.106 c -4.489,-0.176 -8.618,-2.496 -11.106,-6.239 l -0.012,0.004 -18.941,-25.648 C 56,103.012 55.84,102.797 55.684,102.578 l -0.239,-0.324 0.016,0.008 c -2.684,-3.875 -4.262,-8.567 -4.262,-13.613 0,-13.219 10.785,-24 24,-24 12.805,0 23.321,10.117 23.969,22.761 0.078,1.278 0.137,2.711 0.199,4.039 1.262,0.258 2.547,0.391 3.832,0.399 1.289,-0.004 2.571,-0.133 3.832,-0.383 0.063,-1.332 0.125,-2.773 0.199,-4.055 0.649,-12.644 11.168,-22.761 23.969,-22.761 13.219,0 24,10.781 24,24 0,5.046 -1.578,9.738 -4.258,13.613 l 0.012,-0.008 -0.238,0.324 c -0.156,0.219 -0.313,0.434 -0.477,0.645 l -18.945,25.648 -0.012,-0.004 c -2.488,3.743 -6.617,6.063 -11.105,6.239 -7.727,0.297 -14.231,-5.727 -14.528,-13.453 -0.007,-0.34 -0.003,-0.684 0.012,-1.024 l -0.012,-0.008 0.016,-0.359 0,-0.008 0.406,-8.566 c -0.953,0.086 -1.91,0.14 -2.871,0.16 -0.957,-0.016 -1.914,-0.067 -2.871,-0.149 l 0.406,8.555 0,0.008 0.016,0.359 -0.012,0.008 c 0.016,0.34 0.02,0.684 0.012,1.024 -0.297,7.726 -6.801,13.75 -14.527,13.453 z m -11.024,-28.86 c 9.758,0 17.602,-7.84 17.602,-17.597 0,-9.758 -7.844,-17.602 -17.602,-17.602 -9.758,0 -17.597,7.844 -17.597,17.602 0,9.757 7.839,17.597 17.597,17.597 z m 56,0 c 9.758,0 17.602,-7.84 17.602,-17.597 0,-9.758 -7.844,-17.602 -17.602,-17.602 -9.758,0 -17.597,7.844 -17.597,17.602 0,9.757 7.839,17.597 17.597,17.597 z m -56,-8.801 c -0.976,0 -1.855,-0.195 -2.734,-0.39 1.074,-0.879 1.758,-2.25 1.758,-3.715 0,-2.738 -2.149,-4.887 -4.887,-4.887 -1.074,0 -2.051,0.391 -2.93,0.977 l 0,-0.684 c 0,-4.886 3.906,-8.797 8.793,-8.797 4.887,0 8.797,3.911 8.797,8.797 0,4.887 -3.91,8.699 -8.797,8.699 z m 56,0 c -0.976,0 -1.855,-0.195 -2.734,-0.39 1.074,-0.879 1.758,-2.25 1.758,-3.715 0,-2.738 -2.149,-4.887 -4.887,-4.887 -1.074,0 -2.051,0.391 -2.93,0.977 l 0,-0.684 c 0,-4.886 3.906,-8.797 8.793,-8.797 4.887,0 8.797,3.911 8.797,8.797 0,4.887 -3.91,8.699 -8.797,8.699 z" />
        <path
           inkscape:connector-curvature="0"
           id="path4345"
           style="fill:#ffffff;fill-opacity:1;fill-rule:evenodd;stroke:none"
           d="m 118.18,65.16 c -0.461,0.004 -0.914,-0.199 -1.274,-0.531 l -0.004,0 c -7.695,-7.144 -16.964,-8.297 -26.281,-3.562 -0.433,0.222 -0.926,0.296 -1.367,0.168 -0.442,-0.129 -0.789,-0.45 -0.981,-0.817 -0.39,-0.738 -0.289,-1.672 0.278,-2.441 l 0.011,-0.02 0.016,-0.015 c 3.442,-4.145 9.531,-7.551 16.742,-6.571 7.203,0.977 12.188,5.774 14.391,10.797 l 0.016,0.039 c 0.339,0.891 0.187,1.817 -0.383,2.422 -0.285,0.305 -0.703,0.524 -1.164,0.531 z" />
      </g>
    </g>
  </g>
</svg>
